<svg width="316" height="65" viewBox="0 0 316 65" fill="none" xmlns="http://www.w3.org/2000/svg">
<path d="M41.28 11.408C39.936 12.56 38.912 13.904 38.016 15.312C36.032 18.704 34.56 22.352 33.472 26.128C30.72 35.28 29.312 44.56 29.632 54.096C29.632 55.568 29.312 56.08 27.904 56.464C25.472 57.104 23.104 56.848 20.864 55.632C20.032 55.248 19.648 54.608 19.584 53.712C18.816 46.096 18.304 38.544 17.728 30.992C17.28 25.424 16.64 19.92 15.296 14.544C15.232 14.16 15.104 13.84 14.976 13.392C14.72 13.712 14.592 14.096 14.464 14.416C12.864 18.064 12.096 21.968 11.456 25.872C10.176 33.808 10.048 41.808 10.496 49.872C10.624 51.664 10.752 53.52 10.752 55.312C10.816 56.912 10.304 57.552 8.704 57.872C7.936 58 7.104 58.064 6.272 58C3.968 57.808 2.816 56.848 2.176 54.608C1.472 52.112 1.216 49.552 0.96 46.928C0.384 39.952 0.704 32.976 1.536 26.064C2.176 21.072 3.328 16.272 5.632 11.792C6.336 10.448 7.104 9.296 8.064 8.144C9.984 5.648 12.544 4.944 15.552 5.52C19.84 6.288 22.4 8.912 23.936 12.816C24.576 14.608 25.152 16.4 25.6 18.256C25.92 18.064 25.92 17.808 26.048 17.616C27.264 14.608 28.864 11.856 30.976 9.296C33.92 5.776 37.696 4.688 42.112 5.904C48.192 7.504 51.392 11.536 52.416 17.616C52.992 20.816 52.864 24.016 52.672 27.28C52.288 33.296 52.096 39.376 52.032 45.392C51.968 50.192 51.456 54.928 51.2 59.728C51.136 60.176 50.88 60.432 50.496 60.56C48.192 61.712 44.992 60.432 44.224 57.936C43.392 55.504 43.072 52.944 42.752 50.384C42.432 48.144 42.048 45.904 42.24 43.664C42.432 41.104 42.752 38.544 42.944 35.984C43.392 30.544 43.776 25.168 43.264 19.728C43.072 17.168 42.624 14.672 41.664 12.304C41.6 12.048 41.472 11.792 41.28 11.408ZM94.022 30.416C93.766 36.176 93.574 40.656 93.062 45.136C92.87 46.928 92.614 48.656 92.038 50.384C91.27 52.752 90.886 55.184 90.246 57.552C89.606 60.048 88.262 61.072 85.702 61.136C85.702 61.136 85.702 61.136 85.638 61.136C83.91 61.2 83.462 60.88 83.334 59.216C83.142 57.168 83.206 55.12 82.95 53.136C82.438 49.296 83.014 45.52 83.206 41.68C83.206 40.72 83.27 39.76 83.334 38.8C83.398 38.352 83.206 38.288 82.822 38.224C79.302 37.648 75.846 37.904 72.39 38.288C70.598 38.48 68.87 38.736 67.078 38.864C66.374 38.928 66.246 39.184 66.182 39.824C66.118 42.896 66.246 45.968 66.502 48.976C66.694 50.896 66.886 52.816 67.078 54.672C67.142 55.504 66.822 56.08 66.182 56.464C64.134 57.488 62.086 57.616 59.974 56.72C59.078 56.336 58.63 55.504 58.31 54.608C57.542 52.752 57.286 50.768 57.094 48.784C56.39 41.232 56.838 33.68 58.438 26.192C59.846 19.664 62.726 13.712 67.206 8.656C68.422 7.312 69.766 6.096 71.238 5.072C74.758 2.576 78.534 2.256 82.502 3.792C88.006 5.904 91.334 10 92.934 15.568C93.574 17.808 93.894 20.112 94.022 22.416C94.15 25.488 94.086 28.56 94.022 30.416ZM67.334 31.44C72.966 30.8 78.214 32.4 83.526 34C83.59 32.72 83.654 31.376 83.718 30.096C83.91 25.168 84.166 20.304 83.974 15.376C83.846 13.264 83.526 11.216 82.566 9.232C82.054 8.272 82.054 8.208 80.966 8.656C79.302 9.36 78.022 10.448 76.806 11.664C72.39 16.208 69.638 21.648 68.102 27.728C67.782 28.944 67.462 30.096 67.334 31.44ZM124.736 14.672C124.928 17.104 124.928 19.408 124.864 21.712C124.736 31.312 124.544 40.976 124.352 50.64C124.288 53.328 124.352 56.08 124.288 58.832C124.224 59.856 123.776 60.432 122.944 60.816C121.216 61.52 119.36 61.52 117.568 61.2C116.672 61.072 115.84 60.816 115.072 60.368C114.304 59.856 113.984 59.28 113.984 58.32C114.048 54.608 114.24 50.896 114.368 47.12C114.624 37.456 114.88 27.728 115.2 18C115.2 17.04 115.264 16.08 115.328 15.12C115.008 14.864 114.752 14.992 114.496 14.992C111.488 15.312 108.544 15.632 105.6 16.4C105.152 16.464 104.768 16.592 104.384 16.784C103.616 17.168 102.848 17.104 102.144 16.784C99.84 15.632 98.176 13.904 97.216 11.536C97.152 11.344 97.088 11.088 97.024 10.896C96.896 9.872 97.152 9.36 98.112 9.04C100.16 8.4 102.208 7.952 104.32 7.632C111.744 6.352 119.232 6.544 126.784 6.544C129.088 6.544 131.456 6.48 133.824 6.672C135.424 6.8 136.768 7.312 137.92 8.272C139.072 9.296 140.096 10.384 140.8 11.728C140.928 12.112 141.056 12.432 141.184 12.752C141.632 14.416 140.992 15.12 139.328 14.928C136 14.48 132.672 14.608 129.344 14.672C127.808 14.672 126.336 14.672 124.736 14.672ZM156.087 29.456C158.135 29.2 160.183 29.008 162.231 29.008C164.279 29.008 166.391 29.136 168.439 29.904C168.631 28.176 168.823 26.576 168.951 24.976C169.527 17.936 170.551 11.024 171.831 4.112C171.959 3.6 172.087 3.088 172.215 2.64C172.407 1.936 172.919 1.616 173.623 1.552C174.199 1.552 174.711 1.616 175.287 1.808C176.823 2.256 178.103 3.088 179.319 4.24C180.535 5.456 180.727 6.928 180.535 8.528C179.575 15.504 179.063 22.544 178.295 29.52C177.975 32.272 177.975 35.024 177.719 37.776C177.463 39.824 176.823 41.808 176.567 43.856C175.991 48.208 175.415 52.496 175.031 56.848C175.031 57.168 174.839 57.36 174.583 57.488C173.239 58.192 171.831 58.192 170.487 57.552C169.847 57.232 169.655 56.528 169.527 55.888C169.143 54.544 168.951 53.136 168.823 51.728C168.439 47.504 168.119 43.216 167.799 38.928C167.671 37.712 167.799 36.496 167.863 35.28C167.863 35.024 167.927 34.768 167.799 34.448C166.135 34.576 164.535 34.96 162.871 35.344C160.631 35.92 158.583 36.752 156.599 37.968C155.703 38.48 155.575 38.992 155.575 39.824C155.703 44.24 155.255 48.592 155.255 53.008C155.319 55.568 155.319 58.128 155.447 60.688C155.447 61.264 155.447 61.776 155.895 62.224C156.087 62.48 156.023 62.8 155.831 63.056C155.575 63.504 155.127 63.76 154.679 63.952C153.079 64.4 151.543 64.4 150.007 63.888C148.983 63.568 148.407 62.8 148.023 61.776C147.447 60.048 147.127 58.256 146.935 56.464C146.295 51.6 145.655 46.736 145.655 41.872C145.655 36.688 146.103 31.504 146.679 26.32C147.127 22.032 147.575 17.744 148.471 13.52C149.239 9.872 150.263 6.352 151.607 2.96C151.671 2.704 151.799 2.448 151.863 2.256C152.695 0.527996 153.207 0.207996 155.063 0.591999C156.983 0.975998 158.647 1.936 159.991 3.344C160.823 4.112 161.079 5.072 160.695 6.224C159.543 10.192 158.391 14.16 157.559 18.256C156.855 21.712 156.343 25.232 156.023 28.752C156.023 28.944 155.959 29.2 156.087 29.456ZM226.209 8.208C224.673 8.784 223.457 9.872 222.241 10.96C218.977 14.096 216.865 17.936 215.329 22.16C213.985 25.808 213.089 29.584 212.577 33.424C212.577 33.616 212.513 33.808 212.641 34.064C212.961 33.808 213.345 33.488 213.665 33.232C216.609 30.864 219.937 29.072 223.393 27.6C225.441 26.768 227.361 27.472 229.153 28.56C229.537 28.816 229.985 29.008 230.433 29.072C230.689 29.072 230.945 29.2 231.201 29.264C232.929 29.776 233.312 30.416 233.057 32.208C232.929 33.232 232.673 34.32 232.353 35.28C230.817 39.312 229.729 43.536 228.001 47.44C226.657 50.384 225.121 53.2 223.073 55.696C220.193 59.216 214.945 60.496 210.72 58.832C208.993 58.128 207.713 56.976 206.689 55.44C204.513 52.432 203.297 48.976 202.785 45.264C201.184 33.232 203.489 21.904 209.889 11.472C211.233 9.296 212.833 7.312 214.753 5.648C218.145 2.64 221.985 1.936 226.209 3.152C228.449 3.792 230.561 4.816 232.225 6.544C233.249 7.632 233.889 8.848 233.569 10.384C233.377 11.344 233.057 11.728 232.033 11.856C230.817 11.92 229.729 11.664 228.641 11.088C228.129 10.832 227.681 10.448 227.425 9.872C227.105 9.296 226.785 8.656 226.209 8.208ZM215.457 55.376C216.289 54.736 216.929 54.032 217.505 53.264C220.641 48.592 223.009 43.536 224.865 38.224C225.185 37.328 225.505 36.368 225.569 35.408C225.313 35.344 225.121 35.472 224.929 35.6C223.009 36.304 221.153 37.2 219.361 38.16C218.145 38.736 216.993 39.44 216.097 40.336C215.393 41.04 214.753 40.976 213.985 40.72C213.345 40.528 212.833 40.144 212.193 39.76C212.065 41.168 212.193 42.448 212.321 43.728C212.513 46.864 212.961 49.872 214.049 52.816C214.369 53.712 214.817 54.608 215.457 55.376ZM249.526 50.128C250.486 48.848 251.254 47.632 251.894 46.416C255.094 40.848 257.526 34.96 259.894 29.008C261.814 24.208 263.99 18.192 265.206 13.136C265.398 12.304 265.59 11.408 265.846 10.512C266.294 9.104 266.998 8.592 268.47 8.72C270.134 8.784 271.67 9.36 273.078 10.32C274.102 10.96 274.614 11.984 274.806 13.136C275.318 15.632 275.126 19.344 275.19 21.776C275.446 30.032 274.998 38.224 274.678 46.416C274.486 50.448 274.486 54.48 275.126 58.512C275.382 59.728 274.934 60.432 273.654 60.496C270.71 60.688 268.214 59.664 266.166 57.616C265.654 57.04 265.462 56.4 265.334 55.696C264.694 51.984 264.63 48.144 264.822 44.368C264.822 43.28 265.014 42.192 264.95 40.976C264.694 41.104 264.63 41.36 264.502 41.616C263.158 44.88 261.878 48.144 260.022 51.216C259.382 52.432 258.55 53.584 257.718 54.608C255.094 57.808 252.086 58.64 248.246 57.296C244.534 56.144 242.23 53.584 240.886 50C239.478 46.608 238.902 43.024 238.966 39.44C238.902 32.72 238.966 23.376 239.798 16.72C240.054 14.608 240.374 12.496 241.078 10.512C241.59 8.976 242.23 8.592 243.766 8.976C245.622 9.296 247.158 10.256 248.502 11.6C249.142 12.24 249.462 13.072 249.334 14.16C248.502 21.392 248.118 31.376 248.438 38.672C248.566 42.256 248.63 45.776 249.334 49.296C249.334 49.552 249.398 49.744 249.526 50.128ZM304.983 40.656C303.703 42.192 302.359 43.6 301.015 45.072C297.431 48.848 293.335 49.68 287.959 47.632C284.183 46.224 282.327 43.152 281.367 39.44C280.279 35.152 280.151 30.8 280.599 26.448C280.983 22.352 281.687 18.384 283.031 14.48C283.351 13.584 283.671 12.624 284.183 11.792C284.887 10.704 285.527 10.384 286.807 10.64C288.663 10.96 290.199 11.92 291.479 13.328C291.991 13.904 292.183 14.608 292.055 15.44C291.415 18.384 290.711 21.264 290.455 24.208C290.007 28.688 289.495 33.104 290.071 37.584C290.327 39.12 290.583 40.592 291.159 42.128C291.799 41.744 292.247 41.168 292.695 40.656C297.943 34.704 301.591 27.856 304.023 20.368C304.599 18.448 305.175 16.528 305.559 14.544C305.751 13.584 306.263 12.752 306.647 11.792C306.775 11.408 307.159 11.28 307.543 11.28C308.055 11.152 308.567 11.216 309.079 11.28C310.743 11.664 312.215 12.432 313.495 13.584C314.391 14.416 314.903 15.44 314.967 16.72C315.351 24.144 315.799 31.568 315.351 38.992C315.095 43.792 314.647 48.528 313.047 53.136C312.471 54.608 311.831 56.016 311.127 57.424C309.143 61.2 306.007 63.184 301.783 63.504C297.815 63.76 293.911 63.504 290.007 62.48C289.047 62.16 288.087 61.776 287.191 61.328C285.975 60.624 285.207 59.6 284.695 58.32C284.503 57.872 284.695 57.552 285.079 57.296C286.551 56.464 289.175 56.976 290.199 58.448C290.903 59.472 291.991 59.728 293.143 59.792C294.679 59.92 296.215 59.792 297.751 59.408C299.607 58.96 300.887 57.68 301.719 56.016C302.551 54.416 303.063 52.688 303.447 50.96C304.215 47.824 304.663 44.624 304.983 41.36C304.983 41.168 304.983 40.912 304.983 40.656Z" fill="white"/>
</svg>
